<svg id="_x31_" enable-background="new 0 0 24 24" height="30" viewBox="0 0 24 24" width="34" xmlns="http://www.w3.org/2000/svg" style="filter: drop-shadow(rgb(0, 0, 0) 0px 1px 1px);fill:#ffffff;"><g><path d="m22.5 21h-21c-.827 0-1.5-.673-1.5-1.5v-14c0-.827.673-1.5 1.5-1.5h21c.827 0 1.5.673 1.5 1.5v14c0 .827-.673 1.5-1.5 1.5zm-21-16c-.276 0-.5.225-.5.5v14c0 .275.224.5.5.5h21c.276 0 .5-.225.5-.5v-14c0-.275-.224-.5-.5-.5z"/></g><g><path d="m15.5 24h-7c-.202 0-.385-.122-.462-.309-.078-.187-.035-.402.108-.545 1.316-1.316 1.333-2.59 1.333-2.644 0-.274.223-.499.497-.501h.003c.273 0 .496.218.5.491 0 .058.003 1.195-.909 2.507h4.857c-.915-1.308-.928-2.442-.928-2.5 0-.276.224-.5.5-.5.275 0 .499.223.5.497.001.063.04 1.336 1.354 2.649.143.143.186.358.108.545-.076.188-.259.31-.461.31zm-1-3.5h.01z"/></g><g><path d="m23.5 18h-23c-.276 0-.5-.224-.5-.5s.224-.5.5-.5h23c.276 0 .5.224.5.5s-.224.5-.5.5z"/></g><g><path d="m17.25 14h-1.75c-.276 0-.5-.224-.5-.5v-5c0-.276.224-.5.5-.5h1.75c.965 0 1.75.785 1.75 1.75 0 .489-.202.932-.526 1.25.324.318.526.761.526 1.25 0 .965-.785 1.75-1.75 1.75zm-1.25-1h1.25c.414 0 .75-.337.75-.75s-.336-.75-.75-.75h-1.25zm0-2.5h1.25c.414 0 .75-.337.75-.75s-.336-.75-.75-.75h-1.25z"/></g><g><path d="m7.5 14h-2c-.276 0-.5-.224-.5-.5s.224-.5.5-.5h2c.276 0 .5-.225.5-.5v-4c0-.276.224-.5.5-.5s.5.224.5.5v4c0 .827-.673 1.5-1.5 1.5z"/></g><g><path d="m12.5 14h-1c-.827 0-1.5-.673-1.5-1.5v-3c0-.827.673-1.5 1.5-1.5h1c.827 0 1.5.673 1.5 1.5v3c0 .827-.673 1.5-1.5 1.5zm-1-5c-.276 0-.5.225-.5.5v3c0 .275.224.5.5.5h1c.276 0 .5-.225.5-.5v-3c0-.275-.224-.5-.5-.5z"/></g></svg>